<svg xmlns="http://www.w3.org/2000/svg">
  <defs>
    <symbol viewBox="0 0 64 64" id="icon-android">
      <rect width="6" height="22" x="3" y="23" fill="#72caaf" rx="3" ry="3"/>
      <rect width="6" height="22" x="55" y="23" fill="#72caaf" rx="3" ry="3"/>
      <path fill="#72caaf" d="M49 25H15a2 2 0 0 0-2 2v22a2 2 0 0 0 2 2h2a2 2 0 0 1 2 2v8a2 2 0 0 0 2 2h4a2 2 0 0 0 2-2v-8a2 2 0 0 1 2-2h6a2 2 0 0 1 2 2v8a2 2 0 0 0 2 2h4a2 2 0 0 0 2-2v-8a2 2 0 0 1 2-2h2a2 2 0 0 0 2-2V27a2 2 0 0 0-2-2z"/>
      <path fill="#5dbc9d" d="M49 47H15a2 2 0 0 0-2 2 2 2 0 0 0 2 2h2a2 2 0 0 1 2 2v8a2 2 0 0 0 2 2h4a2 2 0 0 0 2-2v-8a2 2 0 0 1 2-2h6a2 2 0 0 1 2 2v8a2 2 0 0 0 2 2h4a2 2 0 0 0 2-2v-8a2 2 0 0 1 2-2h2a2 2 0 0 0 2-2 2 2 0 0 0-2-2z"/>
      <path fill="#97e0bb" d="M15 25h34a2 2 0 0 1 2 2 3 3 0 0 1-3 3H16a3 3 0 0 1-3-3 2 2 0 0 1 2-2z"/>
      <path fill="#72caaf" d="M32 3.42a19.27 19.27 0 0 1 19 15.87 1.11 1.11 0 0 1-.24.91 1.05 1.05 0 0 1-.82.38H14.07a1.05 1.05 0 0 1-.82-.38 1.11 1.11 0 0 1-.24-.91A19.27 19.27 0 0 1 32 3.42z"/>
      <path fill="#f9dd8f" d="M24 11a2 2 0 1 0 0 4 2 2 0 1 0 0-4zm16 0a2 2 0 1 0 0 4 2 2 0 1 0 0-4z"/>
      <path fill="#8d6c9f" d="M22 32a1 1 0 0 0 1-1v-2a1 1 0 0 0-2 0v2a1 1 0 0 0 1 1zm5 0a1 1 0 0 0 1-1v-2a1 1 0 0 0-2 0v2a1 1 0 0 0 1 1zm5 0a1 1 0 0 0 1-1v-2a1 1 0 0 0-2 0v2a1 1 0 0 0 1 1zm5 0a1 1 0 0 0 1-1v-2a1 1 0 0 0-2 0v2a1 1 0 0 0 1 1zm6-1v-2a1 1 0 0 0-2 0v2a1 1 0 0 0 2 0zm4-3a1 1 0 0 0-1 1v2a1 1 0 0 0 2 0v-2a1 1 0 0 0-1-1zm-30 4a1 1 0 0 0 1-1v-2a1 1 0 0 0-2 0v2a1 1 0 0 0 1 1zM6 22a4 4 0 0 0-4 4v16a4 4 0 0 0 8 0V26a4 4 0 0 0-4-4zm2 20a2 2 0 0 1-4 0V26a2 2 0 0 1 4 0zm50-20a4 4 0 0 0-4 4v16a4 4 0 0 0 8 0V26a4 4 0 0 0-4-4zm2 20a2 2 0 0 1-4 0V26a2 2 0 0 1 4 0zM15.29 22h33.42A3 3 0 0 0 51 20.93a3 3 0 0 0 .66-2.49 19.92 19.92 0 0 0-7-11.93l2.24-4a1 1 0 1 0-1.75-1L43 5.32a19.91 19.91 0 0 0-22 0l-2.13-3.81a1 1 0 1 0-1.75 1l2.24 4a19.92 19.92 0 0 0-7 11.93 3 3 0 0 0 .64 2.49A3 3 0 0 0 15.29 22zM32 4a18 18 0 0 1 17.69 14.79 1 1 0 0 1-.22.85 1 1 0 0 1-.76.36H15.29a1 1 0 0 1-.76-.36 1 1 0 0 1-.22-.85A18 18 0 0 1 32 4z"/>
      <path fill="#8d6c9f" d="M24 16a3 3 0 1 0-3-3 3 3 0 0 0 3 3zm0-4.31A1.31 1.31 0 1 1 22.69 13 1.32 1.32 0 0 1 24 11.69zM40 16a3 3 0 1 0-3-3 3 3 0 0 0 3 3zm0-4.25A1.25 1.25 0 1 1 38.75 13 1.25 1.25 0 0 1 40 11.75zM49 24H15a3 3 0 0 0-3 3v22a3 3 0 0 0 3 3h3v7a5 5 0 0 0 10 0v-7h8v7a5 5 0 0 0 10 0v-7h3a3 3 0 0 0 3-3V27a3 3 0 0 0-3-3zm1 25a1 1 0 0 1-1 1h-4a1 1 0 0 0-1 1v8a3 3 0 0 1-6 0v-8a1 1 0 0 0-1-1H27a1 1 0 0 0-1 1v8a3 3 0 0 1-6 0v-8a1 1 0 0 0-1-1h-4a1 1 0 0 1-1-1V27a1 1 0 0 1 1-1h34a1 1 0 0 1 1 1z"/>
      <path fill="#8d6c9f" d="M39 46H17a1 1 0 0 0 0 2h22a1 1 0 0 0 0-2zm8 0h-4a1 1 0 0 0 0 2h4a1 1 0 0 0 0-2z"/>
    </symbol>
    <symbol viewBox="0 0 48 48" id="icon-angularjs">
      <path fill="#bdbdbd" d="M23.933 2L3 9.285l3.308 27.123L23.955 46l17.738-9.722L45 9.156z"/>
      <path fill="#b71c1c" d="M42.818 10.527L24 4.135v39.56l15.832-8.678z"/>
      <path fill="#dd2c00" d="M23.941 4.115l-18.76 6.529 2.987 24.499 15.783 8.578.049-.026V4.135z"/>
      <path fill="#bdbdbd" d="M24 5.996v9.508L32.578 34h4.409z"/>
      <path fill="#eee" d="M11.013 34h4.409L24 15.504V5.996z"/>
      <path fill="#bdbdbd" d="M24 24h6v4h-6z"/>
      <path fill="#eee" d="M18 24h6v4h-6z"/>
    </symbol>
    <symbol viewBox="0 0 48 48" id="icon-bootstrap">
      <path fill="#673ab7" d="M42 37a5 5 0 0 1-5 5H11a5 5 0 0 1-5-5V11a5 5 0 0 1 5-5h26a5 5 0 0 1 5 5v26z"/>
      <path fill="#fff" d="M33.03 25.6c-.65-.9-1.59-1.52-2.8-1.85 0 0 1.02-.37 1.94-1.75.55-.88.83-1.94.83-3.18 0-2.15-.78-3.8-2.34-4.93C29.1 12.76 27.34 12 24.35 12H15v24h10.43c2.83-.02 4.96-.63 6.41-1.8 1.44-1.19 2.16-2.95 2.16-5.3 0-1.3-.32-2.4-.97-3.3zM21 16h4.25c1.52 0 2.75 1.23 2.75 2.75s-1.23 2.75-2.75 2.75H21V16zm5 16h-5v-6h5c1.66 0 3 1.34 3 3s-1.34 3-3 3z"/>
    </symbol>
    <symbol viewBox="0 0 48 48" id="icon-c-plus-plus-logo">
      <path fill="#00549d" fill-rule="evenodd" d="M22.903 3.286a2.247 2.247 0 0 1 2.193 0l16.807 9.434A2.12 2.12 0 0 1 43 14.566v18.867c0 .762-.418 1.466-1.097 1.847l-16.807 9.434a2.247 2.247 0 0 1-2.193 0L6.096 35.28A2.122 2.122 0 0 1 5 33.434V14.567c0-.762.418-1.466 1.097-1.847l16.806-9.434z" clip-rule="evenodd"/>
      <path fill="#0086d4" fill-rule="evenodd" d="M5.304 34.404C5.038 34.048 5 33.71 5 33.255V14.496c0-.758.417-1.458 1.094-1.836l16.748-9.38c.677-.379 1.594-.371 2.271.008 3.343 1.872 13.371 7.459 16.714 9.331.27.152.476.335.66.576L5.304 34.404z" clip-rule="evenodd"/>
      <path fill="#fff" fill-rule="evenodd" d="M24 10c7.727 0 14 6.273 14 14s-6.273 14-14 14-14-6.273-14-14 6.273-14 14-14zm0 7c3.863 0 7 3.136 7 7 0 3.863-3.137 7-7 7s-7-3.137-7-7c0-3.864 3.136-7 7-7z" clip-rule="evenodd"/>
      <path fill="#0075c0" fill-rule="evenodd" d="M42.485 13.205c.516.483.506 1.211.506 1.784 0 3.795-.032 14.589.009 18.384.004.396-.127.813-.323 1.127L23.593 24l18.892-10.795z" clip-rule="evenodd"/>
      <path fill="#fff" fill-rule="evenodd" d="M31 21h2v6h-2zm7 0h2v6h-2z" clip-rule="evenodd"/>
      <path fill="#fff" fill-rule="evenodd" d="M29 23h6v2h-6zm7 0h6v2h-6z" clip-rule="evenodd"/>
    </symbol>
    <symbol viewBox="0 0 48 48" id="icon-css3">
      <path fill="#0277BD" d="M41 5H7l3 34 14 4 14-4 3-34z"/>
      <path fill="#039BE5" d="M24 8v31.9l11.2-3.2L37.7 8z"/>
      <path fill="#FFF" d="M33.1 13H24v4h4.9l-.3 4H24v4h4.4l-.3 4.5-4.1 1.4v4.2l7.9-2.6.7-11.5z"/>
      <path fill="#EEE" d="M24 13v4h-8.9l-.3-4H24zm-4.6 8l.2 4H24v-4h-4.6zm.4 6h-4l.3 5.5 7.9 2.6v-4.2l-4.1-1.4-.1-2.5z"/>
    </symbol>
    <symbol viewBox="0 0 48 48" id="icon-flutter">
      <path fill="#40c4ff" d="M26 4L6 24l6 6L38 4zM38 22L27 33l-6-6 5-5z"/>
      <path fill="#03a9f4" d="M15 33l6-6 6 6-6 6z"/>
      <path fill="#01579b" d="M38 44H26l-5-5 6-6z"/>
      <path fill="#084994" d="M21 39l9-3-3-3z"/>
    </symbol>
    <symbol viewBox="0 0 48 48" id="icon-git">
      <path fill="#F4511E" d="M42.2 22.1L25.9 5.8c-.5-.5-1.2-.8-1.9-.8s-1.4.3-1.9.8l-3.5 3.5 4.1 4.1c.4-.2.8-.3 1.3-.3 1.7 0 3 1.3 3 3 0 .5-.1.9-.3 1.3l4 4c.4-.2.8-.3 1.3-.3 1.7 0 3 1.3 3 3s-1.3 3-3 3-3-1.3-3-3c0-.5.1-.9.3-1.3l-4-4c-.1 0-.2.1-.3.1v10.4c1.2.4 2 1.5 2 2.8 0 1.7-1.3 3-3 3s-3-1.3-3-3c0-1.3.8-2.4 2-2.8V18.8c-1.2-.4-2-1.5-2-2.8 0-.5.1-.9.3-1.3l-4.1-4.1L5.8 22.1c-.5.5-.8 1.2-.8 1.9s.3 1.4.8 1.9l16.3 16.3c.5.5 1.2.8 1.9.8s1.4-.3 1.9-.8l16.3-16.3c.5-.5.8-1.2.8-1.9s-.3-1.4-.8-1.9z"/>
    </symbol>
    <symbol viewBox="0 0 48 48" id="icon-graphql">
      <path fill="#ff4081" d="M24.5 45.161L7 34.82V14.18L24.5 3.839 42 14.18v20.64L24.5 45.161zM9 33.68l15.5 9.159L40 33.68V15.32L24.5 6.161 9 15.32v18.36z"/>
      <path fill="#ff4081" d="M42.72 35H6.28L24.5 2.978 42.72 35zm-33-2h29.56L24.5 7.022 9.72 33z"/>
      <circle cx="24.5" cy="5.5" r="3.5" fill="#ff4081"/>
      <circle cx="24.5" cy="43.5" r="3.5" fill="#ff4081"/>
      <circle cx="8.5" cy="33.5" r="3.5" fill="#ff4081"/>
      <circle cx="40.5" cy="33.5" r="3.5" fill="#ff4081"/>
      <circle cx="8.5" cy="15.5" r="3.5" fill="#ff4081"/>
      <circle cx="40.5" cy="15.5" r="3.5" fill="#ff4081"/>
    </symbol>
    <symbol viewBox="0 0 48 48" id="icon-html-5">
      <path fill="#E65100" d="M41 5H7l3 34 14 4 14-4 3-34z"/>
      <path fill="#FF6D00" d="M24 8v31.9l11.2-3.2L37.7 8z"/>
      <path fill="#FFF" d="M24 25v-4h8.6l-.7 11.5-7.9 2.6v-4.2l4.1-1.4.3-4.5H24zm8.9-8l.3-4H24v4h8.9z"/>
      <path fill="#EEE" d="M24 30.9v4.2l-7.9-2.6-.4-5.5h4l.2 2.5 4.1 1.4zM19.1 17H24v-4h-9.1l.7 12H24v-4h-4.6l-.3-4z"/>
    </symbol>
    <symbol viewBox="0 0 48 48" id="icon-java-coffee-cup-logo">
      <path fill="#F44336" d="M23.65 24.898c-.998-1.609-1.722-2.943-2.725-5.455C19.229 15.2 31.24 11.366 26.37 3.999c2.111 5.089-7.577 8.235-8.477 12.473-.823 3.898 5.752 8.426 5.757 8.426z"/>
      <path fill="#F44336" d="M23.878 17.27c-.192 2.516 2.229 3.857 2.299 5.695.056 1.496-1.447 2.743-1.447 2.743s2.728-.536 3.579-2.818c.945-2.534-1.834-4.269-1.548-6.298.267-1.938 6.031-5.543 6.031-5.543s-8.481.562-8.914 6.221z"/>
      <g fill="#1565C0">
        <path d="M32.084 25.055c1.754-.394 3.233.723 3.233 2.01 0 2.901-4.021 5.643-4.021 5.643s6.225-.742 6.225-5.505c0-3.15-3.057-3.937-5.437-2.148zm-2.955 2.34s1.941-1.383 2.458-1.902c-4.763 1.011-15.638 1.147-15.638.269 0-.809 3.507-1.638 3.507-1.638s-7.773-.112-7.773 2.181c0 2.39 10.175 2.561 17.446 1.09z"/>
        <path d="M27.935 29.571c-4.509 1.499-12.814 1.02-10.354-.993-1.198 0-2.974.963-2.974 1.889 0 1.857 8.982 3.291 15.63.572l-2.302-1.468z"/>
        <path d="M18.686 32.739c-1.636 0-2.695 1.054-2.695 1.822 0 2.391 9.76 2.632 13.627.205l-2.458-1.632c-2.889 1.27-10.146 1.445-8.474-.395z"/>
        <path d="M36.281 36.632c0-.936-1.055-1.377-1.433-1.588 2.228 5.373-22.317 4.956-22.317 1.784 0-.721 1.807-1.427 3.477-1.093l-1.42-.839C11.26 34.374 9 35.837 9 37.017c0 5.503 27.281 5.238 27.281-.385z"/>
        <path d="M39 38.604c-4.146 4.095-14.659 5.587-25.231 3.057C24.341 46.164 38.95 43.628 39 38.604z"/>
      </g>
    </symbol>
    <symbol viewBox="0 0 48 48" id="icon-javascript">
      <path fill="#ffd600" d="M6 42V6h36v36H6z"/>
      <path fill="#000001" d="M29.538 32.947c.692 1.124 1.444 2.201 3.037 2.201 1.338 0 2.04-.665 2.04-1.585 0-1.101-.726-1.492-2.198-2.133l-.807-.344c-2.329-.988-3.878-2.226-3.878-4.841 0-2.41 1.845-4.244 4.728-4.244 2.053 0 3.528.711 4.592 2.573l-2.514 1.607c-.553-.988-1.151-1.377-2.078-1.377-.946 0-1.545.597-1.545 1.377 0 .964.6 1.354 1.985 1.951l.807.344C36.452 29.645 38 30.839 38 33.523 38 36.415 35.716 38 32.65 38c-2.999 0-4.702-1.505-5.65-3.368l2.538-1.685zm-11.586.082c.506.906 1.275 1.603 2.381 1.603 1.058 0 1.667-.418 1.667-2.043V22h3.333v11.101c0 3.367-1.953 4.899-4.805 4.899-2.577 0-4.437-1.746-5.195-3.368l2.619-1.603z"/>
    </symbol>
    <symbol viewBox="0 0 48 48" id="icon-material-ui">
      <path fill="#29b6f6" d="M1 5l6 4v20l-6-4z"/>
      <path fill="#0288d1" d="M47 20l-6 4v13l6-4zM47 6l-6 4v7l6-4zM35 5l-6 4v20l6-4z"/>
      <path fill="#29b6f6" d="M1 12l17 11v-7L1 5z"/>
      <path fill="#0288d1" d="M35 12L18 23v-7L35 5zM35 26L18 37v-7l17-11zM47 34L30 45v-7l17-11z"/>
      <path fill="#29b6f6" d="M30 37.765L18 30v7l12 7.765z"/>
    </symbol>
    <symbol viewBox="0 0 48 48" id="icon-mongodb">
      <path fill="#5d4037" d="M42 17.3C42 37.8 24 44 24 44S6 37.8 6 17.3c0-2.5.2-4.6.4-6.3.3-2.5 2-4.5 4.4-5.1C13.9 5 18.8 4 24 4s10.1 1 13.3 1.9c2.4.6 4.1 2.7 4.4 5.1.1 1.7.3 3.9.3 6.3z"/>
      <path fill="#4caf50" d="M24 7c4.9 0 9.5 1 12.5 1.8 1.2.3 2 1.3 2.2 2.6.2 1.9.3 3.9.3 5.9 0 15.6-11.5 21.9-15 23.4-3.5-1.6-15-7.9-15-23.4 0-2 .1-4 .3-5.9.1-1.3 1-2.3 2.2-2.6C14.5 8 19.1 7 24 7m0-3c-5.2 0-10.1 1-13.3 1.9-2.3.6-4.1 2.7-4.3 5.1-.2 1.7-.4 3.9-.4 6.3C6 37.8 24 44 24 44s18-6.2 18-26.7c0-2.5-.2-4.6-.4-6.3-.3-2.5-2-4.5-4.4-5.1C34.1 5 29.2 4 24 4z"/>
      <path fill="#dcedc8" d="M23 28h2v8h-2z"/>
      <path fill="#4caf50" d="M24 10s-6 5-6 13c0 5.2 3.3 8.5 5 10l1-3 1 3c1.7-1.5 5-4.8 5-10 0-8-6-13-6-13z"/>
      <path fill="#81c784" d="M24 10s-6 5-6 13c0 5.2 3.3 8.5 5 10l1-3V10z"/>
    </symbol>
    <symbol viewBox="0 0 48 48" id="icon-nodejs">
      <path fill="#388e3c" d="M17.204 19.122l-4.907 2.715a.563.563 0 0 0-.297.492v5.433c0 .203.113.39.297.492l4.908 2.717c.183.101.41.101.593 0l4.907-2.717a.566.566 0 0 0 .295-.492v-5.433a.564.564 0 0 0-.297-.492l-4.906-2.715a.613.613 0 0 0-.594 0m25.248 4.891l-.818.452a.093.093 0 0 0-.049.082v.906c0 .034.019.065.049.082l.818.453a.102.102 0 0 0 .099 0l.818-.453a.095.095 0 0 0 .049-.082v-.906a.094.094 0 0 0-.05-.082l-.818-.452c-.015-.009-.032-.013-.049-.013s-.034.004-.049.013"/>
      <path fill="#37474f" d="M35.751 13.364l-2.389-1.333a.243.243 0 0 0-.361.212L33 20.295l-2.203-1.219a.613.613 0 0 0-.594 0h.001l-4.907 2.715a.563.563 0 0 0-.297.491v5.433c0 .203.113.39.297.492l4.908 2.717c.183.101.41.101.593 0l4.907-2.717a.565.565 0 0 0 .295-.492V13.788a.487.487 0 0 0-.249-.424zm-2.885 13.094l-2.23 1.235a.28.28 0 0 1-.269 0l-2.231-1.235a.255.255 0 0 1-.136-.224v-2.47c0-.092.051-.177.135-.224l2.231-1.234h-.001a.29.29 0 0 1 .27 0l2.23 1.234a.259.259 0 0 1 .135.225v2.47a.257.257 0 0 1-.134.223z"/>
      <path fill="#2e7d32" d="M17.204 19.122L12 27.762c0 .203.113.39.297.492l4.908 2.717c.183.101.41.101.593 0L23 22.329a.564.564 0 0 0-.297-.492l-4.906-2.715a.613.613 0 0 0-.594 0"/>
      <path fill="#4caf50" d="M17.204 19.122l-4.907 2.715a.563.563 0 0 0-.297.492l5.204 8.642c.183.101.41.101.593 0l4.907-2.717a.565.565 0 0 0 .296-.492l-5.203-8.64a.613.613 0 0 0-.594 0"/>
      <path fill="#37474f" d="M47.703 21.791l-4.906-2.715a.613.613 0 0 0-.594 0h.001l-4.907 2.715a.574.574 0 0 0-.297.503v5.411c0 .209.114.402.297.503l4.908 2.717a.613.613 0 0 0 .593 0l2.263-1.253a.3.3 0 0 0-.002-.526l-4.924-2.687a.263.263 0 0 1-.135-.228v-2.466c0-.092.05-.177.13-.221l2.235-1.236h-.001a.29.29 0 0 1 .27 0l2.235 1.237c.08.044.13.129.13.221v2.012a.241.241 0 0 0 .363.208l2.398-1.393a.483.483 0 0 0 .24-.417v-1.88a.576.576 0 0 0-.297-.505zm-37 0l-4.906-2.715a.613.613 0 0 0-.594 0h.001L.297 21.791a.574.574 0 0 0-.297.503v7.465a.241.241 0 0 0 .363.208l2.398-1.393A.482.482 0 0 0 3 28.157v-4.393c0-.092.05-.177.13-.221l2.235-1.236a.29.29 0 0 1 .27 0l2.235 1.237c.08.044.13.129.13.221v4.393a.48.48 0 0 0 .24.417l2.398 1.393a.246.246 0 0 0 .242.001.245.245 0 0 0 .12-.21v-7.464a.576.576 0 0 0-.297-.504z"/>
    </symbol>
    <symbol viewBox="0 0 80 80" id="icon-php-logo">
      <path fill="#dcd5f2" d="M40 61.5C18.22 61.5.5 51.855.5 40S18.22 18.5 40 18.5 79.5 28.145 79.5 40 61.78 61.5 40 61.5z"/>
      <path fill="#8b75a1" d="M40 19c21.505 0 39 9.421 39 21S61.505 61 40 61 1 51.579 1 40s17.495-21 39-21m0-1C17.909 18 0 27.85 0 40s17.909 22 40 22 40-9.85 40-22-17.909-22-40-22z"/>
      <path fill="#36404d" d="M25.112 34c1.725 0 3.214.622 4.084 1.706.749.934.981 2.171.668 3.577C29.023 43.074 27.395 44 21.57 44h-4.14l1.75-10h5.932m0-2H17.5L14 52h2l1.056-6h4.515c5.863 0 9.053-.905 10.246-6.284C32.842 35.096 29.436 32 25.112 32zm36 2c1.725 0 3.214.622 4.084 1.706.749.934.981 2.171.668 3.577C65.023 43.074 63.395 44 57.57 44h-4.14l1.75-10h5.932m0-2H53.5L50 52h2l1.056-6h4.515c5.863 0 9.053-.905 10.246-6.284C68.842 35.096 65.436 32 61.112 32zM49.072 33.212C48.193 32.348 46.644 32 44.334 32h-5.538L40 26h-2.1L34 46h1.99l2.388-12h5.957c2.338 0 3.094.4 3.335.637.343.338.424 1.226.217 2.363l-1.767 9h2.106l1.626-8.63c.347-1.908.084-3.308-.78-4.158z"/>
    </symbol>
    <symbol viewBox="0 0 48 48" id="icon-postgreesql">
      <path fill="#fff" d="M44.083 29.79c-.183-.829-.935-1.796-2.452-1.796-.31 0-.649.039-1.035.119-.708.146-1.311.217-1.842.241 4.133-7.04 6.816-16.819 4.159-20.214-3.501-4.473-8.214-5.141-10.711-5.141L31.967 3c-.929.015-1.893.129-2.863.339l-3.583.774A14.004 14.004 0 0 0 24.018 4h-.046l-.152-.001c-1.593 0-3.046.338-4.341.973l-1.251-.493c-1.72-.678-4.308-1.485-6.868-1.485-.144 0-.287.003-.431.008-2.522.091-4.688 1.048-6.265 2.767C2.696 7.915 1.8 11.054 2.003 15.1c.01.209 2.458 20.9 9.397 20.9h.025l.064-.001c.901-.022 1.76-.384 2.563-1.077.613.46 1.406.732 2.145.84.488.115 1.366.278 2.418.278 1.284 0 2.442-.263 3.44-.738-.001.88-.006 1.994-.016 3.418l-.001.075.005.075c.097 1.419.342 2.698.711 3.701 1.051 2.859 2.866 4.434 5.111 4.434.093 0 .188-.003.284-.009 1.846-.114 3.717-1.151 5.004-2.772 1.393-1.755 1.715-3.607 1.839-5.026l.008-.087v-4.167l.103.01.436.038.042.004.042.002c.124.006.252.008.381.008 1.507 0 3.362-.391 4.616-.974 1.199-.556 3.939-2.084 3.463-4.242z"/>
      <path fill="#0277bd" d="M33 34c0-.205.012-.376.018-.565L33 33l.032-.022c.149-2.673.886-3.703 1.675-4.29-.11-.153-.237-.318-.356-.475-.333-.437-.748-.979-1.192-1.674l-.082-.158c-.067-.164-.229-.447-.435-.819-1.183-2.14-3.645-6.592-1.96-9.404.738-1.232 2.122-1.942 4.121-2.117-.817-2.323-3.878-7.926-10.818-8.041h-.006c-6.041-.098-8.026 5.392-8.672 8.672.89-.377 1.906-.606 2.836-.606h.043c2.29.017 3.865 1.239 4.323 3.354.335 1.552.496 2.91.492 4.153-.01 2.719-.558 4.149-1.042 5.411l-.154.408c-.124.334-.255.645-.379.937a12.31 12.31 0 0 0-.318.802c.484.11.864.265 1.125.38l.151.066c.047.02.094.043.137.069.848.516 1.376 1.309 1.489 2.233.061.498.051 3.893.03 6.855.087 1.285.305 2.364.593 3.146.409 1.114 1.431 3.241 3.394 3.119 1.37-.085 2.687-.919 3.561-2.019.938-1.181 1.284-2.487 1.414-3.958V34z"/>
      <path fill="#0277bd" d="M15.114 28.917c-1.613-1.683-2.399-3.947-2.104-6.056.285-2.035.124-4.027.037-5.098a11.082 11.082 0 0 1-.047-.77c0-.008.002-.015.003-.023l-.002-.011c.121-3.021 1.286-7.787 4.493-10.62C15.932 5.724 13.388 4.913 11 5c-3.742.136-7.364 2.724-7 10 .137 2.73 3.222 19.103 7.44 19 .603-.015 1.229-.402 1.872-1.176a93.536 93.536 0 0 1 2.708-3.104 7.618 7.618 0 0 1-.906-.803zm21.909-14.186c.015.154.002.286-.022.408.031.92-.068 1.813-.169 2.677-.074.636-.15 1.293-.171 1.952-.021.645.07 1.282.166 1.956.225 1.578.459 3.359-.765 5.437.225.296.423.571.581.837 4.61-7.475 6.468-16.361 4.695-18.626-2.683-3.428-6.397-4.42-9.339-4.372-.921.015-1.758.139-2.473.294 5.076 2.46 7.337 7.732 7.497 9.437zM41 30.071c-2.665.55-3.947.257-4.569-.126-.1.072-.2.133-.293.19-.372.225-.961.583-1.105 2.782.083.016.156.025.246.044l.435.039c1.32.06 3.049-.31 4.063-.781 2.185-1.014 3.376-2.592 1.223-2.148zm-18.977 2.048c-.037-.298-.198-.539-.492-.732l-.108-.047c-.361-.159-.77-.34-1.423-.34h-.004c-.127.01-.253.019-.38.019-.052 0-.103-.007-.155-.009-.474.365-1.148.647-2.816.99-2.98.759-1.221 1.655-.078 1.794 1.106.277 3.735.614 5.481-.809a13.664 13.664 0 0 0-.025-.866z"/>
      <path fill="#0277bd" d="M20.681 18.501c-.292.302-.753.566-1.262.484-.828-.134-1.463-1.133-1.417-1.508.044-.374.751-.569 1.578-.435.287.047.548.128.768.228-.32-.688-.899-1.085-1.782-1.182-1.565-.174-3.226.644-3.56 1.097.007.11.02.251.033.417.093 1.147.265 3.284-.05 5.537-.208 1.485.393 3.169 1.567 4.395.757.79 1.641 1.29 2.513 1.438.111-.478.309-.944.513-1.425.113-.265.233-.547.346-.852l.162-.427c.443-1.155.9-2.35.909-4.703.004-.905-.107-1.938-.318-3.064zm14.166 3.506c-.104-.729-.211-1.484-.185-2.303.023-.742.105-1.442.184-2.119.062-.533.11-1.045.138-1.55-1.289.107-2.145.479-2.551 1.108.168-.057.358-.102.568-.129.892-.116 1.543.141 1.618.637.055.363-.253.705-.388.836a1.75 1.75 0 0 1-.981.488 1.559 1.559 0 0 1-.192.012c-.353 0-.69-.121-.949-.3.112 1.973 1.567 4.612 2.283 5.907.153.277.271.498.369.688.393-1.119.248-2.139.086-3.275z"/>
    </symbol>
    <symbol viewBox="0 0 48 48" id="icon-python">
      <path fill="#0277BD" d="M24.047 5c-1.555.005-2.633.142-3.936.367-3.848.67-4.549 2.077-4.549 4.67V14h9v2H10.87c-2.636 0-4.943 1.242-5.674 4.219-.826 3.417-.863 5.557 0 9.125C5.851 32.005 7.294 34 9.931 34h3.632v-5.104c0-2.966 2.686-5.896 5.764-5.896h7.236c2.523 0 5-1.862 5-4.377v-8.586c0-2.439-1.759-4.263-4.218-4.672.061-.006-1.756-.371-3.298-.365zm-4.984 4c.821 0 1.5.677 1.5 1.502a1.5 1.5 0 0 1-1.5 1.498 1.49 1.49 0 0 1-1.5-1.498A1.5 1.5 0 0 1 19.063 9z"/>
      <path fill="#FFC107" d="M23.078 43c1.555-.005 2.633-.142 3.936-.367 3.848-.67 4.549-2.077 4.549-4.67V34h-9v-2h13.693c2.636 0 4.943-1.242 5.674-4.219.826-3.417.863-5.557 0-9.125C41.274 15.995 39.831 14 37.194 14h-3.632v5.104c0 2.966-2.686 5.896-5.764 5.896h-7.236c-2.523 0-5 1.862-5 4.377v8.586c0 2.439 1.759 4.263 4.218 4.672-.061.006 1.756.371 3.298.365zm4.985-4c-.821 0-1.5-.677-1.5-1.502a1.5 1.5 0 0 1 1.5-1.498c.837 0 1.5.664 1.5 1.498 0 .822-.664 1.502-1.5 1.502z"/>
    </symbol>
    <symbol viewBox="0 0 40 40" id="icon-react">
      <path fill="#98ccfd" d="M23.5 20c0 1.935-1.565 3.5-3.5 3.5s-3.5-1.565-3.5-3.5 1.565-3.5 3.5-3.5 3.5 1.565 3.5 3.5z"/>
      <path fill="#4788c7" d="M20 24c-2.206 0-4-1.794-4-4s1.794-4 4-4 4 1.794 4 4-1.794 4-4 4zm0-7c-1.654 0-3 1.346-3 3s1.346 3 3 3 3-1.346 3-3-1.346-3-3-3z"/>
      <path fill="#98ccfd" d="M39.5 20c0-2.796-2.912-5.232-7.492-6.787.576-2.671.655-5.055.166-6.881-.408-1.522-1.181-2.617-2.296-3.253-.671-.382-1.438-.577-2.279-.577-2.207 0-4.893 1.401-7.597 3.791C17.296 3.902 14.609 2.5 12.4 2.5c-.842 0-1.608.194-2.279.577-1.115.637-1.889 1.733-2.296 3.256-.489 1.826-.41 4.21.165 6.88C3.412 14.768.5 17.205.5 20s2.912 5.232 7.491 6.786c-.576 2.67-.655 5.054-.165 6.88.407 1.524 1.181 2.619 2.297 3.257.671.382 1.438.577 2.279.577h.001c2.208 0 4.894-1.401 7.598-3.793 2.704 2.389 5.39 3.789 7.597 3.79h.001c.842 0 1.608-.194 2.28-.577 1.114-.636 1.887-1.731 2.294-3.253.489-1.826.41-4.21-.165-6.88C36.587 25.233 39.5 22.796 39.5 20zM28.888 4.817c.634.362 1.09 1.046 1.354 2.033.401 1.496.322 3.509-.158 5.79a36.288 36.288 0 0 0-5.208-.938 37.376 37.376 0 0 0-3.44-4.041c2.397-2.087 4.598-3.158 6.163-3.158.49 0 .923.106 1.289.314zm-3.104 18.47a44.493 44.493 0 0 1-2.003 3.119 44.027 44.027 0 0 1-7.566 0A43.284 43.284 0 0 1 12.481 20a43.13 43.13 0 0 1 3.736-6.407A43.603 43.603 0 0 1 20 13.431c1.315 0 2.577.057 3.781.162a43.146 43.146 0 0 1 3.736 6.406 42.79 42.79 0 0 1-1.733 3.288zm2.774-.895c.41 1.036.756 2.052 1.041 3.035-.99.258-2.057.478-3.194.655.377-.582.748-1.174 1.106-1.787.37-.632.715-1.267 1.047-1.903zM20 30.983a33.061 33.061 0 0 1-2.205-2.47 46.89 46.89 0 0 0 2.205.055c.747 0 1.48-.021 2.203-.055A32.636 32.636 0 0 1 20 30.983zm-6.407-4.901a32.577 32.577 0 0 1-3.193-.655c.285-.983.63-1.998 1.04-3.034.332.635.677 1.271 1.046 1.903.358.612.73 1.204 1.107 1.786zm-2.153-8.475a33.933 33.933 0 0 1-1.04-3.034c.99-.258 2.057-.478 3.194-.655a46.062 46.062 0 0 0-1.107 1.786c-.37.633-.715 1.268-1.047 1.903zm8.561-8.589a32.394 32.394 0 0 1 2.202 2.469c-.723-.034-1.456-.055-2.203-.055s-1.48.021-2.203.055a32.618 32.618 0 0 1 2.204-2.469zm7.51 6.686a45.344 45.344 0 0 0-1.106-1.787c1.137.177 2.204.397 3.194.655a33.983 33.983 0 0 1-1.041 3.036 45.94 45.94 0 0 0-1.047-1.904zM9.757 6.851c.265-.989.721-1.674 1.355-2.037.366-.208.799-.314 1.288-.314 1.567 0 3.768 1.072 6.166 3.161a37.405 37.405 0 0 0-3.443 4.042 36.284 36.284 0 0 0-5.208.939c-.48-2.283-.559-4.296-.158-5.791zM2.5 20c0-1.729 2.231-3.566 5.983-4.857A37.312 37.312 0 0 0 10.28 20a37.312 37.312 0 0 0-1.797 4.857C4.731 23.566 2.5 21.729 2.5 20zm9.901 15.5c-.49 0-.924-.106-1.288-.313-.636-.363-1.092-1.048-1.356-2.037-.401-1.496-.322-3.509.158-5.79 1.596.417 3.342.734 5.207.938a37.312 37.312 0 0 0 3.444 4.043c-2.398 2.088-4.599 3.159-6.165 3.159zm17.84-2.35c-.265.987-.72 1.671-1.354 2.033-.365.208-.799.314-1.289.314-1.566 0-3.767-1.071-6.164-3.157a37.379 37.379 0 0 0 3.441-4.042 36.412 36.412 0 0 0 5.207-.938c.481 2.281.56 4.294.159 5.79zm1.274-8.292A37.377 37.377 0 0 0 29.718 20a37.377 37.377 0 0 0 1.797-4.858C35.268 16.433 37.5 18.271 37.5 20c0 1.729-2.232 3.567-5.985 4.858z"/>
      <path fill="#4788c7" d="M12.402 38c-.93 0-1.78-.216-2.528-.642-1.237-.708-2.089-1.906-2.532-3.563-.472-1.762-.446-4.064.07-6.682C2.694 25.42 0 22.842 0 20s2.694-5.42 7.412-7.114c-.517-2.617-.542-4.92-.07-6.682.443-1.656 1.295-2.854 2.531-3.561 2.52-1.438 6.178-.393 10.128 2.988 3.949-3.378 7.604-4.422 10.125-2.986 1.235.705 2.087 1.902 2.531 3.558.472 1.763.446 4.066-.071 6.683C37.305 14.579 40 17.158 40 20c0 2.842-2.695 5.421-7.414 7.115.518 2.617.542 4.919.07 6.682-.443 1.656-1.294 2.853-2.529 3.558-2.523 1.438-6.181.391-10.127-2.985-2.776 2.377-5.396 3.63-7.598 3.63zM12.4 3c-.753 0-1.437.172-2.031.511-.996.57-1.689 1.563-2.06 2.951-.458 1.707-.398 4.005.171 6.646l.094.436-.422.144C3.606 15.23 1 17.531 1 20s2.606 4.77 7.151 6.313l.422.144-.094.436c-.569 2.641-.629 4.939-.171 6.646.371 1.389 1.064 2.382 2.062 2.952.595.337 1.278.509 2.031.509h.001c2.012 0 4.592-1.302 7.267-3.667L20 33.04l.331.293c2.674 2.362 5.255 3.664 7.267 3.664.754 0 1.438-.172 2.034-.511.994-.568 1.687-1.56 2.058-2.948.458-1.707.398-4.004-.171-6.645l-.094-.436.422-.144C36.393 24.771 39 22.469 39 20c0-2.47-2.607-4.771-7.153-6.313l-.422-.144.095-.436c.569-2.641.629-4.939.171-6.646-.372-1.389-1.065-2.38-2.061-2.948-.595-.339-1.278-.511-2.031-.511-2.011 0-4.591 1.302-7.267 3.666l-.331.293-.331-.293C16.994 4.303 14.413 3 12.4 3zm.001 33c-.577 0-1.094-.127-1.535-.379-.756-.432-1.292-1.22-1.593-2.342-.408-1.527-.355-3.61.152-6.022l.108-.513.507.132c1.591.415 3.317.727 5.135.925l.217.024.131.175a37.112 37.112 0 0 0 3.397 3.989l.374.379-.401.35C16.464 34.834 14.158 36 12.401 36zm-2.098-8.027c-.468 2.04-.482 3.777-.063 5.047.278.841.605 1.438 1.121 1.732 1.294.739 3.813-.237 6.473-2.446a38.373 38.373 0 0 1-2.984-3.536 37.174 37.174 0 0 1-4.547-.797zm17.296 8.024c-1.757 0-4.063-1.165-6.491-3.28l-.401-.349.374-.379a36.993 36.993 0 0 0 3.394-3.988l.13-.176.218-.024a35.868 35.868 0 0 0 5.137-.925l.508-.132.107.513c.507 2.414.56 4.496.151 6.022-.301 1.121-.836 1.908-1.589 2.338-.444.253-.961.38-1.538.38zm-5.433-3.691c2.66 2.207 5.171 3.184 6.475 2.443.513-.292.839-.889 1.117-1.728.422-1.271.405-3.008-.062-5.047a37.331 37.331 0 0 1-4.549.797 38.093 38.093 0 0 1-2.981 3.535zM20 31.695l-.355-.36a33.42 33.42 0 0 1-2.238-2.508l-.7-.867 1.112.053c1.431.068 2.931.068 4.361 0l1.111-.053-.698.866a33.694 33.694 0 0 1-2.237 2.507l-.356.362zm-1.102-2.641c.359.417.728.822 1.102 1.212a33.73 33.73 0 0 0 1.101-1.212 42.58 42.58 0 0 1-2.203 0zM20 27.068c-1.284 0-2.571-.055-3.827-.164l-.232-.02-.134-.191a45.484 45.484 0 0 1-2.025-3.154 44.453 44.453 0 0 1-1.753-3.325L11.927 20l.102-.214a44.258 44.258 0 0 1 1.753-3.325 44.75 44.75 0 0 1 2.027-3.155l.134-.19.232-.02a44.812 44.812 0 0 1 7.649 0l.232.02.134.191a44.85 44.85 0 0 1 2.025 3.154 43.378 43.378 0 0 1 1.753 3.326l.101.213-.101.214a43.565 43.565 0 0 1-3.778 6.48l-.134.191-.232.02c-1.254.108-2.54.163-3.824.163zm-3.509-1.14a43.93 43.93 0 0 0 7.015 0 43.949 43.949 0 0 0 1.847-2.893A42.289 42.289 0 0 0 26.963 20a42.289 42.289 0 0 0-1.61-3.035 43.539 43.539 0 0 0-1.847-2.893 43.904 43.904 0 0 0-7.013 0 43.958 43.958 0 0 0-1.849 2.894A43.072 43.072 0 0 0 13.034 20a43.345 43.345 0 0 0 1.61 3.035 45.463 45.463 0 0 0 1.847 2.893zm8.886.821l.607-.938c.373-.576.74-1.162 1.095-1.767a44.92 44.92 0 0 0 1.035-1.883l.506-.968.402 1.016c.405 1.023.761 2.06 1.057 3.081l.143.494-.497.129a33.478 33.478 0 0 1-3.243.665l-1.105.171zm3.102-3.149a39.125 39.125 0 0 1-1.05 1.8c.528-.1 1.042-.209 1.54-.329-.15-.49-.314-.981-.49-1.471zm-13.858 3.149l-1.105-.172a33.25 33.25 0 0 1-3.241-.665l-.497-.129.143-.493a34.11 34.11 0 0 1 1.056-3.08l.402-1.017.506.97a43.74 43.74 0 0 0 1.034 1.882 45.84 45.84 0 0 0 1.095 1.767l.607.937zm-3.592-1.68c.496.119 1.01.229 1.537.329a36.768 36.768 0 0 1-1.048-1.798c-.176.492-.339.982-.489 1.469zm20.151.433l-.146-.505a36.842 36.842 0 0 0-1.772-4.792L29.17 20l.092-.204a36.837 36.837 0 0 0 1.773-4.792l.146-.505.498.171C35.637 16.031 38 18.024 38 20c0 1.977-2.363 3.969-6.322 5.331l-.498.171zM30.265 20a38.236 38.236 0 0 1 1.579 4.209C34.993 23.039 37 21.412 37 20s-2.007-3.039-5.156-4.209A38.212 38.212 0 0 1 30.265 20zM8.817 25.501l-.497-.171C4.363 23.968 2 21.976 2 20s2.363-3.968 6.32-5.33l.497-.171.146.505a36.874 36.874 0 0 0 1.772 4.792l.093.204-.092.204a36.728 36.728 0 0 0-1.772 4.792l-.147.505zm-.662-9.71C5.006 16.962 3 18.589 3 20s2.006 3.038 5.155 4.209c.421-1.375.95-2.787 1.578-4.209a38.001 38.001 0 0 1-1.578-4.209zm3.223 3.018l-.402-1.017a34.424 34.424 0 0 1-1.056-3.08l-.143-.493.497-.129a33.395 33.395 0 0 1 3.242-.665l1.106-.172-.61.939c-.373.575-.74 1.161-1.095 1.766a43.15 43.15 0 0 0-1.034 1.882l-.505.969zm-.349-3.878c.149.487.313.978.489 1.469.174-.316.352-.632.536-.948.168-.287.339-.57.512-.85-.527.099-1.041.21-1.537.329zm17.591 3.878l-.506-.969a44.297 44.297 0 0 0-1.035-1.883 45.84 45.84 0 0 0-1.095-1.767l-.607-.938 1.104.172c1.137.177 2.229.401 3.243.666l.497.129-.143.494a34.436 34.436 0 0 1-1.057 3.081l-.401 1.015zm-1.19-4.208a39.125 39.125 0 0 1 1.05 1.8c.176-.491.34-.982.49-1.47-.497-.12-1.012-.23-1.54-.33zm3.035-1.344l-.507-.132a35.742 35.742 0 0 0-5.137-.925l-.218-.024-.13-.176a36.695 36.695 0 0 0-3.394-3.987l-.374-.379.401-.35c3.229-2.811 6.243-3.919 8.027-2.901.755.431 1.29 1.218 1.591 2.338.408 1.527.355 3.61-.152 6.023l-.107.513zm-5.318-2.028c1.597.183 3.123.451 4.549.798.517-1.907.59-3.595.063-5.048-.302-.83-.604-1.435-1.119-1.729-1.298-.74-3.812.236-6.473 2.444a38.254 38.254 0 0 1 2.98 3.535zM9.534 13.257l-.108-.513c-.508-2.413-.561-4.495-.152-6.022.301-1.123.836-1.911 1.591-2.341 1.789-1.02 4.801.091 8.03 2.904l.402.35-.375.379a36.676 36.676 0 0 0-3.396 3.987l-.13.176-.218.024c-1.818.199-3.547.51-5.137.925l-.507.131zM12.4 5c-.401 0-.751.083-1.041.249-.514.293-.774.916-1.119 1.731-.54 1.275-.449 3.011.063 5.047a37.363 37.363 0 0 1 4.549-.798 37.952 37.952 0 0 1 2.983-3.534C15.766 5.977 13.803 5 12.4 5zm4.309 7.039l.699-.866c.71-.88 1.463-1.723 2.237-2.507l.355-.36.355.36c.777.787 1.529 1.63 2.236 2.506l.697.866-1.11-.052a47.291 47.291 0 0 0-4.359 0l-1.11.053zM20 10.932c.37 0 .737.005 1.101.014a31.814 31.814 0 0 0-1.1-1.211 31.99 31.99 0 0 0-1.101 1.211c.364-.009.73-.014 1.1-.014z"/>
    </symbol>
    <symbol viewBox="0 0 48 48" id="icon-redux">
      <path fill="#7e57c2" d="M23 4c-6.617 0-12 7.27-12 16.205 0 4.834 1.582 9.169 4.078 12.136A2.986 2.986 0 0 0 15 33a3 3 0 1 0 3-3 2.96 2.96 0 0 0-.897.152C15.206 27.731 14 24.175 14 20.205 14 12.924 18.037 7 23 7c3.837 0 7.111 3.547 8.404 8.518 1.122.346 2.237.782 3.33 1.308C33.579 9.508 28.759 4 23 4z"/>
      <path fill="#7e57c2" d="M35.507 20.084c-3.947-2.392-8.374-3.442-12.182-2.959A2.982 2.982 0 0 0 21 16a3 3 0 1 0 0 6 2.995 2.995 0 0 0 2.789-1.912c3.118-.379 6.812.531 10.163 2.563 6.403 3.881 9.67 10.569 7.282 14.911-.827 1.504-2.286 2.572-4.218 3.09-2.286.611-5.007.394-7.727-.528a24.508 24.508 0 0 1-2.725 2.168c2.552 1.117 5.196 1.704 7.669 1.704 1.24 0 2.438-.147 3.559-.447 2.741-.733 4.841-2.304 6.071-4.542 3.153-5.731-.596-14.22-8.356-18.923z"/>
      <path fill="#7e57c2" d="M35 28.992C35 27.34 33.657 26 32 26s-3 1.34-3 2.992c0 .669.228 1.281.6 1.779-1.279 2.802-3.744 5.567-7.062 7.578-3.865 2.344-8.185 3.202-11.555 2.302-1.932-.518-3.391-1.586-4.218-3.09-1.702-3.094-.521-7.376 2.61-10.988a22.94 22.94 0 0 1-.706-3.575c-5.07 4.797-7.109 11.323-4.532 16.009 1.23 2.238 3.33 3.809 6.071 4.542 1.121.3 2.318.447 3.559.447 3.346 0 7.007-1.068 10.326-3.08 3.836-2.325 6.683-5.577 8.209-8.962C33.815 31.801 35 30.541 35 28.992z"/>
    </symbol>
    <symbol viewBox="0 0 48 48" id="icon-ruby-programming-language">
      <path fill="#9B1010" d="M42 14l-2 26-26 2z"/>
      <path fill="#B71C1C" d="M28 28l12 12 2-26z"/>
      <path fill="#C62828" d="M15.752 15.752a22.621 11.664-45.001 1 0 16.496 16.496 22.621 11.664-45.001 1 0-16.496-16.496z"/>
      <path fill="#E53935" d="M10 17l7-7 8-4 6 4-3 9-9 8-9 3-4-6z"/>
      <path fill="#FF5252" d="M31 10l-6-4h11l-5 4zm11 5l-11-5-3 9 14-4zM19 27l13.235 5.235L28 19l-9 8zm-9 3l4 12 5-15-9 3zm-4-6v11l4-5-4-6z"/>
    </symbol>
    <symbol viewBox="0 0 48 48" id="icon-sass">
      <path fill="#f06292" d="M39.867 25.956a9.032 9.032 0 0 0-3.986.928c-.408-.815-.822-1.532-.891-2.065-.081-.622-.175-.994-.077-1.735.098-.741.527-1.791.521-1.87-.006-.079-.096-.456-.983-.463-.887-.006-1.646.171-1.735.405-.089.234-.26.761-.366 1.311-.155.804-1.771 3.673-2.688 5.173-.3-.586-.555-1.102-.608-1.51-.081-.622-.175-.994-.077-1.735.098-.741.527-1.791.521-1.87-.006-.079-.096-.456-.983-.463-.887-.006-1.646.171-1.735.405-.089.234-.185.781-.366 1.311-.182.529-2.329 5.314-2.892 6.555-.287.632-.536 1.14-.712 1.486l-.001-.002-.029.062c-.151.295-.24.458-.24.458l.003.006c-.12.217-.248.418-.311.418-.044 0-.133-.577.019-1.369.32-1.66 1.087-4.248 1.08-4.338-.004-.046.143-.497-.501-.733-.626-.229-.849.153-.906.154-.055.001-.096.135-.096.135s.697-2.911-1.33-2.911c-1.268 0-3.024 1.387-3.889 2.644-.546.298-1.715.936-2.954 1.617l-1.423.783-.095-.104c-2.459-2.623-7.003-4.478-6.811-8.005.07-1.282.516-4.658 8.733-8.752 6.731-3.354 12.12-2.431 13.051-.386 1.33 2.923-2.88 8.354-9.87 9.138-2.663.299-4.066-.734-4.415-1.118-.367-.405-.422-.423-.559-.347-.223.124-.082.481 0 .694.209.543 1.065 1.506 2.525 1.986 1.285.422 4.412.653 8.193-.81 4.236-1.638 7.543-6.196 6.571-10.005-.988-3.874-7.412-5.148-13.492-2.988-3.623 1.286-7.54 3.304-10.357 5.938-3.349 3.132-3.883 5.859-3.663 6.998.782 4.048 6.361 6.684 8.595 8.637l-.308.17c-1.12.554-5.373 2.78-6.437 5.131-1.207 2.667.192 4.581 1.118 4.839 2.869.798 5.813-.638 7.396-2.998 1.582-2.359 1.389-5.432.663-6.834l-.028-.052.876-.517c.57-.335 1.13-.647 1.615-.911-.272.744-.471 1.637-.574 2.926-.122 1.514.499 3.471 1.311 4.241.358.339.788.347 1.06.347.945 0 1.376-.786 1.851-1.716.582-1.14 1.099-2.468 1.099-2.468s-.648 3.586 1.118 3.586c.644 0 1.291-.835 1.58-1.26l.001.007.05-.083c.067-.102.105-.167.105-.167l.003-.019a70.91 70.91 0 0 0 1.693-3.162c1.112-2.182 2.178-4.916 2.178-4.916s.099.668.424 1.774c.191.65.597 1.369.918 2.059-.258.358-.416.563-.416.563l.004.011c-.206.274-.437.569-.679.857-.878 1.045-1.923 2.239-2.063 2.583-.165.406-.126.704.193.945.233.175.647.203 1.08.174a4.92 4.92 0 0 0 1.617-.368 5.426 5.426 0 0 0 1.39-.731c.861-.633 1.38-1.538 1.33-2.738-.028-.661-.238-1.316-.505-1.934l.235-.34c1.357-1.984 2.41-4.164 2.41-4.164s.099.668.424 1.774c.164.559.489 1.17.781 1.768-1.276 1.037-2.067 2.242-2.342 3.032-.508 1.462-.11 2.124.636 2.275.338.068.816-.087 1.175-.239a5.438 5.438 0 0 0 1.486-.764c.861-.633 1.689-1.519 1.639-2.718-.023-.546-.171-1.088-.372-1.608 1.082-.451 2.482-.701 4.266-.493 3.827.447 4.577 2.836 4.434 3.836-.144 1-.946 1.55-1.215 1.716-.268.166-.35.224-.328.347.033.179.157.173.386.134.315-.053 2.009-.813 2.082-2.659.091-2.346-2.154-4.92-6.131-4.899zM10.37 35.9c-1.268 1.383-3.038 1.905-3.798 1.465-.82-.475-.495-2.511 1.06-3.979.948-.894 2.172-1.718 2.984-2.225l.786-.472.086-.048-.001-.002.196-.118c.567 2.089.018 3.928-1.313 5.379zm9.235-6.277c-.441 1.076-1.365 3.83-1.928 3.682-.483-.127-.777-2.22-.096-4.28.342-1.037 1.074-2.276 1.504-2.757.692-.774 1.454-1.027 1.639-.713.235.4-.842 3.393-1.119 4.068zm7.629 3.64c-.187.098-.359.159-.438.112-.059-.035.077-.164.077-.164s.954-1.027 1.33-1.494c.219-.272.472-.595.748-.955l.003.107c-.002 1.23-1.19 2.06-1.72 2.394zm5.877-1.34c-.14-.099-.116-.42.343-1.421.18-.393.592-1.054 1.306-1.686.083.26.133.509.132.741-.009 1.548-1.113 2.126-1.781 2.366z"/>
    </symbol>
    <symbol viewBox="0 0 48 48" id="icon-swift">
      <path fill="#FF6D00" d="M6 10a4 4 0 0 1 4-4h28a4 4 0 0 1 4 4v28a4 4 0 0 1-4 4H10a4 4 0 0 1-4-4V10z"/>
      <path fill="#E64A19" d="M6 10v11.967l4 4S21.153 38.848 30 30s-3.981-19-3.981-19l-5.005-5H10a4 4 0 0 0-4 4z"/>
      <path fill="#FFF" d="M26.019 11c11.429 7.698 7.732 16.187 7.732 16.187s3.25 3.634 1.936 6.813c0 0-1.34-2.226-3.588-2.226-2.166 0-3.44 2.226-7.8 2.226C14.591 34 10 25.967 10 25.967c8.747 5.7 14.719 1.663 14.719 1.663C20.778 25.364 12 14 12 14c7.299 6.155 11 8 11 8-1.882-1.542-8-9-8-9 4.224 4.238 13.307 10.378 13.307 10.378C30.691 16.834 26.019 11 26.019 11z"/>
    </symbol>
    <symbol viewBox="0 0 48 48" id="icon-typescript">
      <path fill="#1976d2" d="M6 6h36v36H6z"/>
      <path fill="#fff" d="M27.49 22H14.227v3.264h4.757V40h3.769V25.264h4.737zM39.194 26.084s-1.787-1.192-3.807-1.192-2.747.96-2.747 1.986c0 2.648 7.381 2.383 7.381 7.712 0 8.209-11.254 4.568-11.254 4.568V35.22s2.152 1.622 4.733 1.622 2.483-1.688 2.483-1.92c0-2.449-7.315-2.449-7.315-7.878 0-7.381 10.658-4.469 10.658-4.469l-.132 3.509z"/>
    </symbol>
    <symbol viewBox="0 0 48 48" id="icon-vue-js">
      <path fill="#81c784" d="M23.987 17l-5.253-9H2.974l21.013 36L45 8H29.24z"/>
      <path fill="#455a64" d="M29.24 8l-5.253 9-5.253-9h-7.588l12.841 22L36.828 8z"/>
    </symbol>
  </defs>
</svg>