<svg xmlns="http://www.w3.org/2000/svg">
  <defs>
    <symbol viewBox="0 0 48 48" id="icon-angularjs">
      <path fill="#bdbdbd" d="M23.933 2L3 9.285l3.308 27.123L23.955 46l17.738-9.722L45 9.156z"/>
      <path fill="#b71c1c" d="M42.818 10.527L24 4.135v39.56l15.832-8.678z"/>
      <path fill="#dd2c00" d="M23.941 4.115l-18.76 6.529 2.987 24.499 15.783 8.578.049-.026V4.135z"/>
      <path fill="#bdbdbd" d="M24 5.996v9.508L32.578 34h4.409z"/>
      <path fill="#eee" d="M11.013 34h4.409L24 15.504V5.996z"/>
      <path fill="#bdbdbd" d="M24 24h6v4h-6z"/>
      <path fill="#eee" d="M18 24h6v4h-6z"/>
    </symbol>
    <symbol viewBox="0 0 48 48" id="icon-css3">
      <path fill="#0277BD" d="M41 5H7l3 34 14 4 14-4 3-34z"/>
      <path fill="#039BE5" d="M24 8v31.9l11.2-3.2L37.7 8z"/>
      <path fill="#FFF" d="M33.1 13H24v4h4.9l-.3 4H24v4h4.4l-.3 4.5-4.1 1.4v4.2l7.9-2.6.7-11.5z"/>
      <path fill="#EEE" d="M24 13v4h-8.9l-.3-4H24zm-4.6 8l.2 4H24v-4h-4.6zm.4 6h-4l.3 5.5 7.9 2.6v-4.2l-4.1-1.4-.1-2.5z"/>
    </symbol>
    <symbol viewBox="0 0 48 48" id="icon-html-5">
      <path fill="#E65100" d="M41 5H7l3 34 14 4 14-4 3-34z"/>
      <path fill="#FF6D00" d="M24 8v31.9l11.2-3.2L37.7 8z"/>
      <path fill="#FFF" d="M24 25v-4h8.6l-.7 11.5-7.9 2.6v-4.2l4.1-1.4.3-4.5H24zm8.9-8l.3-4H24v4h8.9z"/>
      <path fill="#EEE" d="M24 30.9v4.2l-7.9-2.6-.4-5.5h4l.2 2.5 4.1 1.4zM19.1 17H24v-4h-9.1l.7 12H24v-4h-4.6l-.3-4z"/>
    </symbol>
    <symbol viewBox="0 0 48 48" id="icon-javascript">
      <path fill="#ffd600" d="M6 42V6h36v36H6z"/>
      <path fill="#000001" d="M29.538 32.947c.692 1.124 1.444 2.201 3.037 2.201 1.338 0 2.04-.665 2.04-1.585 0-1.101-.726-1.492-2.198-2.133l-.807-.344c-2.329-.988-3.878-2.226-3.878-4.841 0-2.41 1.845-4.244 4.728-4.244 2.053 0 3.528.711 4.592 2.573l-2.514 1.607c-.553-.988-1.151-1.377-2.078-1.377-.946 0-1.545.597-1.545 1.377 0 .964.6 1.354 1.985 1.951l.807.344C36.452 29.645 38 30.839 38 33.523 38 36.415 35.716 38 32.65 38c-2.999 0-4.702-1.505-5.65-3.368l2.538-1.685zm-11.586.082c.506.906 1.275 1.603 2.381 1.603 1.058 0 1.667-.418 1.667-2.043V22h3.333v11.101c0 3.367-1.953 4.899-4.805 4.899-2.577 0-4.437-1.746-5.195-3.368l2.619-1.603z"/>
    </symbol>
    <symbol viewBox="0 0 48 48" id="icon-mongodb">
      <path fill="#5d4037" d="M42 17.3C42 37.8 24 44 24 44S6 37.8 6 17.3c0-2.5.2-4.6.4-6.3.3-2.5 2-4.5 4.4-5.1C13.9 5 18.8 4 24 4s10.1 1 13.3 1.9c2.4.6 4.1 2.7 4.4 5.1.1 1.7.3 3.9.3 6.3z"/>
      <path fill="#4caf50" d="M24 7c4.9 0 9.5 1 12.5 1.8 1.2.3 2 1.3 2.2 2.6.2 1.9.3 3.9.3 5.9 0 15.6-11.5 21.9-15 23.4-3.5-1.6-15-7.9-15-23.4 0-2 .1-4 .3-5.9.1-1.3 1-2.3 2.2-2.6C14.5 8 19.1 7 24 7m0-3c-5.2 0-10.1 1-13.3 1.9-2.3.6-4.1 2.7-4.3 5.1-.2 1.7-.4 3.9-.4 6.3C6 37.8 24 44 24 44s18-6.2 18-26.7c0-2.5-.2-4.6-.4-6.3-.3-2.5-2-4.5-4.4-5.1C34.1 5 29.2 4 24 4z"/>
      <path fill="#dcedc8" d="M23 28h2v8h-2z"/>
      <path fill="#4caf50" d="M24 10s-6 5-6 13c0 5.2 3.3 8.5 5 10l1-3 1 3c1.7-1.5 5-4.8 5-10 0-8-6-13-6-13z"/>
      <path fill="#81c784" d="M24 10s-6 5-6 13c0 5.2 3.3 8.5 5 10l1-3V10z"/>
    </symbol>
    <symbol viewBox="0 0 48 48" id="icon-nodejs">
      <path fill="#388e3c" d="M17.204 19.122l-4.907 2.715a.563.563 0 0 0-.297.492v5.433c0 .203.113.39.297.492l4.908 2.717c.183.101.41.101.593 0l4.907-2.717a.566.566 0 0 0 .295-.492v-5.433a.564.564 0 0 0-.297-.492l-4.906-2.715a.613.613 0 0 0-.594 0m25.248 4.891l-.818.452a.093.093 0 0 0-.049.082v.906c0 .034.019.065.049.082l.818.453a.102.102 0 0 0 .099 0l.818-.453a.095.095 0 0 0 .049-.082v-.906a.094.094 0 0 0-.05-.082l-.818-.452c-.015-.009-.032-.013-.049-.013s-.034.004-.049.013"/>
      <path fill="#37474f" d="M35.751 13.364l-2.389-1.333a.243.243 0 0 0-.361.212L33 20.295l-2.203-1.219a.613.613 0 0 0-.594 0h.001l-4.907 2.715a.563.563 0 0 0-.297.491v5.433c0 .203.113.39.297.492l4.908 2.717c.183.101.41.101.593 0l4.907-2.717a.565.565 0 0 0 .295-.492V13.788a.487.487 0 0 0-.249-.424zm-2.885 13.094l-2.23 1.235a.28.28 0 0 1-.269 0l-2.231-1.235a.255.255 0 0 1-.136-.224v-2.47c0-.092.051-.177.135-.224l2.231-1.234h-.001a.29.29 0 0 1 .27 0l2.23 1.234a.259.259 0 0 1 .135.225v2.47a.257.257 0 0 1-.134.223z"/>
      <path fill="#2e7d32" d="M17.204 19.122L12 27.762c0 .203.113.39.297.492l4.908 2.717c.183.101.41.101.593 0L23 22.329a.564.564 0 0 0-.297-.492l-4.906-2.715a.613.613 0 0 0-.594 0"/>
      <path fill="#4caf50" d="M17.204 19.122l-4.907 2.715a.563.563 0 0 0-.297.492l5.204 8.642c.183.101.41.101.593 0l4.907-2.717a.565.565 0 0 0 .296-.492l-5.203-8.64a.613.613 0 0 0-.594 0"/>
      <path fill="#37474f" d="M47.703 21.791l-4.906-2.715a.613.613 0 0 0-.594 0h.001l-4.907 2.715a.574.574 0 0 0-.297.503v5.411c0 .209.114.402.297.503l4.908 2.717a.613.613 0 0 0 .593 0l2.263-1.253a.3.3 0 0 0-.002-.526l-4.924-2.687a.263.263 0 0 1-.135-.228v-2.466c0-.092.05-.177.13-.221l2.235-1.236h-.001a.29.29 0 0 1 .27 0l2.235 1.237c.08.044.13.129.13.221v2.012a.241.241 0 0 0 .363.208l2.398-1.393a.483.483 0 0 0 .24-.417v-1.88a.576.576 0 0 0-.297-.505zm-37 0l-4.906-2.715a.613.613 0 0 0-.594 0h.001L.297 21.791a.574.574 0 0 0-.297.503v7.465a.241.241 0 0 0 .363.208l2.398-1.393A.482.482 0 0 0 3 28.157v-4.393c0-.092.05-.177.13-.221l2.235-1.236a.29.29 0 0 1 .27 0l2.235 1.237c.08.044.13.129.13.221v4.393a.48.48 0 0 0 .24.417l2.398 1.393a.246.246 0 0 0 .242.001.245.245 0 0 0 .12-.21v-7.464a.576.576 0 0 0-.297-.504z"/>
    </symbol>
    <symbol viewBox="0 0 16 16" id="icon-react">
      <path fill="#4e7ab5" d="M8 11.568c-4.561 0-8-1.534-8-3.568s3.439-3.568 8-3.568S16 5.966 16 8s-3.439 3.568-8 3.568zm0-6.136C3.875 5.432 1 6.785 1 8s2.875 2.568 7 2.568S15 9.215 15 8s-2.875-2.568-7-2.568z"/>
      <path fill="#4e7ab5" d="M5.027 15c-.35 0-.668-.081-.947-.242-.455-.262-.783-.726-.948-1.343-.445-1.663.274-4.474 1.833-7.161C6.792 3.111 9.206 1 10.974 1c.35 0 .668.081.947.242.454.261.782.725.947 1.341.445 1.664-.274 4.475-1.834 7.162C9.21 12.888 6.796 15 5.027 15zm5.947-13C9.82 2 7.625 3.667 5.83 6.757c-1.41 2.43-2.106 5.002-1.732 6.4.097.359.258.606.48.734.971.558 3.526-1.09 5.591-4.649 1.411-2.431 2.107-5.003 1.733-6.401-.097-.358-.258-.605-.479-.732A.884.884 0 0 0 10.974 2z"/>
      <path fill="#4e7ab5" d="M10.974 15c-1.769 0-4.183-2.112-6.008-5.254-1.56-2.686-2.279-5.497-1.834-7.161.165-.617.493-1.082.948-1.343A1.87 1.87 0 0 1 5.027 1c1.768 0 4.182 2.112 6.007 5.256 1.56 2.687 2.279 5.497 1.833 7.161-.165.617-.492 1.081-.946 1.341a1.87 1.87 0 0 1-.947.242zM5.027 2a.884.884 0 0 0-.449.109c-.223.128-.384.375-.48.735-.374 1.398.322 3.97 1.733 6.4C7.624 12.333 9.819 14 10.974 14a.881.881 0 0 0 .449-.109c.222-.127.383-.374.479-.733.375-1.398-.321-3.97-1.732-6.4C8.376 3.667 6.181 2 5.027 2z"/>
      <path fill="#8bb7f0" d="M9 8a1 1 0 1 1-2 0 1 1 0 1 1 2 0z"/>
      <path fill="#4e7ab5" d="M8 9.5c-.827 0-1.5-.673-1.5-1.5S7.173 6.5 8 6.5s1.5.673 1.5 1.5S8.827 9.5 8 9.5zm0-2a.5.5 0 1 0 .002 1.002A.5.5 0 0 0 8 7.5z"/>
    </symbol>
    <symbol viewBox="0 0 48 48" id="icon-vue-js">
      <path fill="#81c784" d="M23.987 17l-5.253-9H2.974l21.013 36L45 8H29.24z"/>
      <path fill="#455a64" d="M29.24 8l-5.253 9-5.253-9h-7.588l12.841 22L36.828 8z"/>
    </symbol>
  </defs>
</svg>