<?xml version="1.0" standalone="no"?>
<!DOCTYPE svg PUBLIC "-//W3C//DTD SVG 20010904//EN"
 "http://www.w3.org/TR/2001/REC-SVG-20010904/DTD/svg10.dtd">
<svg version="1.0" xmlns="http://www.w3.org/2000/svg"
 width="250.000000pt" height="250.000000pt" viewBox="0 0 250.000000 250.000000"
 preserveAspectRatio="xMidYMid meet">
<metadata>
Created by potrace 1.11, written by Peter Selinger 2001-2013
</metadata>
<g transform="translate(0.000000,250.000000) scale(0.100000,-0.100000)"
fill="#000000" stroke="none">
<path d="M1077 1873 c-20 -3 -27 -9 -25 -21 3 -9 11 -15 19 -14 50 13 144 11
209 -2 260 -54 436 -272 439 -543 1 -31 5 -43 16 -43 21 0 20 97 -1 187 -23
102 -70 187 -144 263 -112 115 -234 170 -390 175 -52 2 -108 1 -123 -2z"/>
<path d="M1111 1819 c-48 -9 -56 -13 -48 -27 3 -4 46 -7 96 -5 105 3 186 -18
265 -67 36 -23 52 -28 60 -20 14 14 -17 39 -92 75 -87 41 -199 59 -281 44z"/>
<path d="M855 1788 c-58 -41 -128 -113 -166 -172 -65 -98 -106 -237 -75 -249
11 -4 17 7 25 43 31 143 115 268 234 348 29 19 35 28 26 38 -6 8 -12 14 -13
14 0 0 -14 -10 -31 -22z"/>
<path d="M1158 1765 c-2 -2 -25 -5 -53 -8 -168 -17 -323 -151 -375 -322 -18
-61 -21 -185 -5 -245 56 -211 242 -354 456 -349 243 6 449 207 451 444 2 94
-7 138 -42 212 -69 148 -217 251 -382 266 -26 2 -49 3 -50 2z"/>
<path d="M725 1566 c-43 -74 -67 -155 -71 -241 -4 -100 3 -137 25 -133 12 3
15 13 12 48 -2 25 -4 56 -5 70 -3 32 19 138 36 176 7 16 22 45 35 66 19 30 20
38 8 48 -11 9 -19 2 -40 -34z"/>
<path d="M1664 1413 c-6 -2 -9 -37 -7 -91 3 -126 -23 -213 -94 -313 -31 -43
-45 -56 -120 -112 -22 -16 -29 -27 -23 -37 19 -31 158 95 209 189 41 78 68
189 64 264 -5 97 -8 108 -29 100z"/>
<path d="M616 1171 c-8 -12 8 -60 45 -138 59 -125 208 -247 350 -288 135 -38
301 -20 431 47 94 48 206 152 188 173 -9 11 -17 7 -43 -22 -75 -86 -208 -161
-317 -179 -118 -20 -261 5 -366 63 -106 59 -213 192 -253 316 -12 36 -24 46
-35 28z"/>
<path d="M735 1047 c-21 -52 138 -193 270 -240 61 -22 219 -33 258 -18 51 20
31 32 -45 27 -89 -6 -188 13 -266 51 -56 27 -148 109 -190 168 -18 26 -21 28
-27 12z"/>
</g>
</svg>
