<?xml version="1.0" standalone="no"?>
<!DOCTYPE svg PUBLIC "-//W3C//DTD SVG 20010904//EN"
 "http://www.w3.org/TR/2001/REC-SVG-20010904/DTD/svg10.dtd">
<svg version="1.0" xmlns="http://www.w3.org/2000/svg"
 width="1000.000000pt" height="1000.000000pt" viewBox="0 0 1000.000000 1000.000000"
 preserveAspectRatio="xMidYMid meet">
<metadata>
Created by potrace 1.11, written by Peter Selinger 2001-2013
</metadata>
<g transform="translate(0.000000,1000.000000) scale(0.100000,-0.100000)"
fill="#000000" stroke="none">
<path d="M4548 7525 c-2 -2 -33 -5 -70 -9 -90 -8 -129 -14 -221 -33 -75 -16
-78 -17 -73 -42 10 -60 19 -92 26 -96 3 -2 37 2 74 10 119 25 296 41 428 39
92 -2 229 -11 263 -18 11 -2 43 -7 70 -10 234 -32 534 -141 764 -279 402 -242
717 -600 893 -1017 34 -81 84 -219 93 -257 2 -10 11 -43 19 -73 17 -62 41
-196 53 -292 4 -34 8 -149 8 -255 0 -215 -6 -199 79 -198 58 0 54 -15 55 210
1 215 -12 322 -70 564 -113 479 -396 925 -784 1238 -174 140 -420 286 -590
350 -22 8 -53 21 -70 28 -74 32 -319 97 -415 110 -25 3 -52 8 -60 10 -50 13
-460 30 -472 20z"/>
<path d="M4597 7295 c-1 -2 -37 -5 -80 -9 -42 -4 -90 -9 -105 -11 -15 -3 -40
-7 -57 -9 -81 -11 -116 -19 -121 -28 -3 -4 -1 -23 4 -41 6 -17 13 -44 16 -60
5 -22 10 -26 24 -18 9 5 19 9 22 9 6 -1 109 13 132 18 83 15 340 20 437 9 211
-26 334 -54 505 -117 162 -59 359 -164 467 -249 20 -16 41 -29 47 -29 5 0 26
21 46 47 l37 47 -23 19 c-29 22 -184 125 -230 151 -195 113 -520 224 -733 251
-27 3 -68 8 -91 11 -40 5 -292 12 -297 9z"/>
<path d="M3554 7231 c-5 -5 -25 -17 -44 -28 -19 -10 -76 -46 -126 -80 -276
-190 -513 -443 -685 -730 -59 -100 -76 -133 -131 -253 -78 -170 -158 -454
-175 -617 l-5 -52 49 -6 c26 -3 55 -8 65 -9 13 -3 18 8 24 58 4 33 8 63 9 66
8 33 15 70 19 90 14 86 88 314 133 410 14 30 35 75 46 100 61 132 216 361 323
479 169 186 326 314 536 440 l38 22 -25 47 c-34 67 -40 73 -51 63z"/>
<path d="M4558 7055 c-2 -2 -30 -5 -63 -8 -458 -43 -914 -284 -1213 -642 -209
-250 -352 -549 -412 -865 -39 -201 -33 -519 14 -725 78 -348 234 -640 473
-888 390 -405 933 -611 1488 -563 72 6 100 9 170 22 11 2 36 7 55 10 125 22
357 105 485 174 209 113 396 263 553 445 59 69 171 234 220 327 91 171 181
450 197 613 4 39 9 79 11 90 5 25 5 255 0 315 -7 77 -18 165 -22 171 -2 3 -6
21 -9 40 -20 123 -89 326 -152 454 -147 295 -377 553 -653 734 -207 135 -501
248 -715 276 -22 2 -60 7 -85 11 -43 6 -337 13 -342 9z"/>
<path d="M2946 6352 c-32 -48 -88 -150 -126 -227 -91 -188 -145 -349 -183
-555 -40 -210 -40 -532 -1 -720 3 -14 8 -42 11 -62 6 -42 9 -43 84 -27 l51 11
-6 37 c-3 20 -8 47 -11 60 -15 78 -26 213 -26 336 -1 383 110 760 318 1073 30
46 53 84 52 86 -2 1 -22 16 -44 32 -22 17 -45 33 -51 37 -6 4 -35 -31 -68 -81z"/>
<path d="M6662 5656 c-29 -8 -55 -15 -57 -18 -3 -3 0 -29 5 -59 6 -30 13 -70
16 -89 2 -19 7 -51 10 -70 12 -69 10 -347 -2 -445 -56 -439 -259 -853 -565
-1156 -37 -36 -89 -83 -115 -105 -27 -21 -51 -42 -54 -46 -7 -9 -227 -155
-242 -161 -10 -3 -5 -21 17 -64 34 -70 26 -71 146 8 435 285 741 699 878 1189
26 93 36 137 56 245 26 142 27 503 2 630 -3 11 -10 50 -17 88 -7 37 -15 67
-19 66 -3 0 -30 -6 -59 -13z"/>
<path d="M2490 4708 c-19 -5 -40 -11 -47 -13 -13 -4 11 -112 54 -235 161 -468
448 -853 850 -1143 51 -37 95 -67 97 -67 3 0 25 -14 50 -31 54 -36 280 -149
299 -149 7 0 17 -4 22 -9 22 -20 278 -103 359 -116 17 -3 63 -12 101 -20 39
-7 102 -17 140 -20 39 -4 79 -9 90 -11 29 -6 300 -5 370 1 487 43 980 246
1320 544 128 112 366 373 365 400 0 3 -23 21 -51 39 -42 28 -54 31 -63 20 -7
-7 -38 -44 -68 -83 -181 -224 -438 -430 -708 -565 -166 -83 -441 -173 -610
-199 -36 -6 -81 -13 -100 -17 -55 -9 -408 -12 -480 -4 -125 15 -166 22 -275
46 -195 44 -464 148 -590 228 -27 18 -57 35 -65 39 -89 42 -319 226 -446 358
-240 251 -436 602 -529 951 -19 71 -19 72 -85 56z"/>
<path d="M2943 4197 c-29 -18 -53 -36 -53 -41 0 -13 145 -226 192 -281 50 -58
207 -217 258 -261 264 -226 623 -393 1000 -465 175 -33 516 -33 700 1 30 5 65
11 77 13 34 5 35 10 22 76 -10 54 -14 60 -33 56 -205 -44 -503 -53 -701 -20
-290 49 -544 143 -765 283 -223 142 -474 395 -605 610 -21 34 -38 62 -39 61
-1 0 -25 -15 -53 -32z"/>
</g>
</svg>
